<svg xmlns:mydata="http://www.w3.org/2000/svg" mydata:contrastcolor="111827" mydata:template="Contrast" mydata:presentation="2.5" mydata:layouttype="undefined" mydata:specialfontid="undefined" mydata:id1="306" mydata:id2="307" mydata:companyname="Want Watch" mydata:companytagline="" version="1.1" xmlns="http://www.w3.org/2000/svg" xmlns:xlink="http://www.w3.org/1999/xlink" style="height: 186px;" viewBox="0 50 550 370"><g fill="#059669" fill-rule="none" stroke="none" stroke-width="1" stroke-linecap="butt" stroke-linejoin="miter" stroke-miterlimit="10" stroke-dasharray="" stroke-dashoffset="0" font-family="none" font-weight="none" font-size="none" text-anchor="none" style="mix-blend-mode: normal"><g data-paper-data="{&quot;isGlobalGroup&quot;:true,&quot;bounds&quot;:{&quot;x&quot;:83.79210960815155,&quot;y&quot;:181.08779203461472,&quot;width&quot;:382.41578078369696,&quot;height&quot;:107.82441593077056}}"><g data-paper-data="{&quot;stacked&quot;:true,&quot;isPrimaryText&quot;:true}" fill-rule="nonzero" id="element-id-90412"><path d="M298.5492,183.40262v2.88558c3.67255,0.13116 6.55813,0.72139 6.03348,2.36093l-6.75488,23.08463l-7.86976,-23.08463c-0.52465,-1.50837 1.37721,-2.22977 5.04976,-2.36093v-2.88558c-6.82046,0.19674 -14.29673,0.19674 -21.31393,0v2.88558c3.93488,0.13116 4.9186,0.85256 5.44325,2.36093l0.45907,1.24605l-6.42697,21.83858l-7.80418,-23.08463c-0.52465,-1.50837 1.57395,-2.22977 5.50883,-2.36093v-2.88558c-7.08278,0.19674 -14.42789,0.19674 -21.24835,0v2.88558c3.67255,0.26233 4.39395,0.85256 4.9186,2.36093l13.44417,36.06973h3.8693l9.57488,-29.90509l11.14883,29.90509h3.93488l11.47673,-36.06973c0.52465,-1.63953 2.0986,-2.0986 5.83674,-2.36093v-2.88558c-5.11534,0.19674 -10.16511,0.19674 -15.28045,0z" data-paper-data="{&quot;glyphName&quot;:&quot;W&quot;,&quot;glyphIndex&quot;:0,&quot;firstGlyphOfWord&quot;:true,&quot;word&quot;:1,&quot;line&quot;:1,&quot;firstGlyphOfFirstLine&quot;:true}" fill="#059669" id="element-id-4788"></path><path d="M341.96405,214.55376l-11.87022,-31.47904h-6.29581l-11.34557,33.77439c-1.0493,3.01674 -2.95116,4.06604 -7.80418,4.39395v2.88558c5.9679,-0.19674 12.26371,-0.19674 18.23161,0v-2.88558c-4.98418,-0.19674 -8.00092,-0.65581 -7.08278,-3.41023l2.49209,-7.60743h11.08325l2.95116,7.80418c0.98372,2.62325 -1.50837,3.01674 -4.85302,3.21349v2.88558c7.34511,-0.19674 14.49348,-0.19674 21.90417,0v-2.88558c-4.13162,-0.32791 -5.50883,-1.83628 -7.41069,-6.6893zM319.27291,207.27423l4.13162,-12.72278l4.85302,12.72278z" data-paper-data="{&quot;glyphName&quot;:&quot;A&quot;,&quot;glyphIndex&quot;:1,&quot;word&quot;:1,&quot;line&quot;:1}" fill="#059669" id="element-id-62170"></path><path d="M375.80402,183.40262v2.88558c4.26279,0.32791 7.7386,0.78698 7.7386,2.42651v17.5758l-16.19859,-22.88789c-5.24651,0.19674 -10.49301,0.19674 -15.73952,0v2.88558c3.73814,0.26233 6.16465,2.16418 6.16465,3.54139v28.98695c0,1.63953 -3.41023,2.0986 -6.75488,2.42651v2.88558c5.37767,-0.19674 11.73906,-0.19674 18.03487,0v-2.88558c-4.32837,-0.32791 -7.80418,-0.78698 -7.80418,-2.42651v-26.10137l22.36324,31.41346h3.34465v-35.41392c0,-1.63953 3.47581,-2.0986 6.88604,-2.42651v-2.88558c-5.31209,0.19674 -11.73906,0.19674 -18.03487,0z" data-paper-data="{&quot;glyphName&quot;:&quot;N&quot;,&quot;glyphIndex&quot;:2,&quot;word&quot;:1,&quot;line&quot;:1}" fill="#059669" id="element-id-98694"></path><path d="M429.38397,183.00913c-2.36093,0.45907 -3.8693,0.39349 -7.54185,0.39349h-12.59162c-3.80372,0 -5.31209,0.06558 -7.67302,-0.39349h-3.54139l-2.22977,9.05022h3.47581c2.0986,-4.59069 2.95116,-5.37767 5.11534,-5.37767h4.52511v32.13485c0,1.63953 -1.24605,2.16418 -4.9186,2.42651v2.88558c6.82046,-0.19674 13.83766,-0.19674 20.59254,0v-2.88558c-3.67255,-0.26233 -4.9186,-0.78698 -4.9186,-2.42651v-32.13485h4.39395c2.22977,0 3.60697,0.32791 2.88558,5.37767h3.41023l2.55767,-9.05022z" data-paper-data="{&quot;glyphName&quot;:&quot;T&quot;,&quot;glyphIndex&quot;:3,&quot;lastGlyphOfWord&quot;:true,&quot;word&quot;:1,&quot;line&quot;:1,&quot;lastGlyphOfFirstLine&quot;:true}" fill="#059669" id="element-id-56931"></path><path d="M296.58176,245.21555v1.63953c3.47581,0.39349 5.57441,0.72139 5.04976,2.36093l-8.85348,28.79021l-9.90278,-28.79021c-0.52465,-1.50837 0.85256,-1.96744 4.26279,-2.36093v-1.63953c-5.24651,0.19674 -10.23069,0.19674 -15.14929,0v1.63953c3.1479,0.39349 3.80372,0.85256 4.32837,2.36093l1.70511,4.85302l-7.21395,23.93719l-9.90278,-28.79021c-0.52465,-1.50837 0.72139,-1.96744 4.06604,-2.36093v-1.63953c-5.11534,0.19674 -10.09953,0.19674 -15.34603,0v1.63953c3.47581,0.39349 4.26279,0.85256 4.78744,2.36093l13.05069,37.31578h2.42651l9.24697,-29.24928l10.29627,29.24928h2.42651l12.00138,-37.31578c0.52465,-1.63953 2.42651,-1.96744 5.90232,-2.36093v-1.63953c-4.39395,0.19674 -8.7879,0.19674 -13.18185,0z" data-paper-data="{&quot;glyphName&quot;:&quot;W&quot;,&quot;glyphIndex&quot;:4,&quot;firstGlyphOfWord&quot;:true,&quot;word&quot;:2,&quot;fontStyleEffect&quot;:true,&quot;line&quot;:2,&quot;firstGlyphOfSecondLine&quot;:true}" fill="#059669" id="element-id-80156"></path><path d="M339.70149,280.17041l-13.24743,-35.28276h-3.54139l-11.9358,34.88927c-1.0493,3.01674 -2.49209,4.06604 -6.62371,4.45953v1.70511c4.13162,-0.19674 9.44371,-0.19674 13.7065,0v-1.70511c-3.80372,-0.39349 -6.03348,-1.11488 -5.24651,-3.41023l2.95116,-8.65674h14.49348l3.01674,8.19767c0.98372,2.62325 1.44279,3.47581 -3.54139,3.8693v1.70511c5.18093,-0.19674 10.75534,-0.19674 15.87068,0v-1.70511c-4.72186,-0.39349 -4.98418,-1.50837 -5.90232,-4.06604zM316.42012,270.26762l6.29581,-18.6251l6.82046,18.6251z" data-paper-data="{&quot;glyphName&quot;:&quot;A&quot;,&quot;glyphIndex&quot;:5,&quot;word&quot;:2,&quot;fontStyleEffect&quot;:true,&quot;line&quot;:2}" fill="#059669" id="element-id-50270"></path><path d="M377.44942,244.82207c-1.56397,0.45616 -2.47629,0.65166 -5.53908,0.65166h-15.57458c-3.06278,0 -3.90994,-0.1955 -5.53908,-0.65166h-1.43364l-2.34596,8.86252h1.75947c2.60662,-5.27841 3.25828,-6.32106 5.93007,-6.32106h5.34358v34.47261c0,1.62914 -1.23815,2.0853 -4.62676,2.41113v1.69431c5.01775,-0.1955 10.4265,-0.1955 15.44425,0v-1.69431c-3.38861,-0.32583 -4.62676,-0.78199 -4.62676,-2.41113v-34.47261h5.93007c2.67179,0 3.06278,1.69431 2.67179,6.32106h1.75947l2.2808,-8.86252z" data-paper-data="{&quot;glyphName&quot;:&quot;T&quot;,&quot;glyphIndex&quot;:6,&quot;word&quot;:2,&quot;fontStyleEffect&quot;:true,&quot;line&quot;:2}" fill="#059669" id="element-id-22227"></path><path d="M417.71392,275.06586c-2.10829,6.5884 -6.25898,9.68495 -12.51796,9.68495c-7.77431,0 -13.04504,-8.63081 -13.04504,-21.14877c0,-13.30857 5.60014,-17.52515 10.54144,-17.52515c7.11547,0 11.00263,3.88716 13.70388,10.40968h3.03066c-1.77887,-4.01893 -2.70124,-7.44489 -3.42597,-11.20028c-0.92238,0.13177 -1.31768,0.13177 -1.97652,0.13177c-4.01893,0 -5.27072,-1.2518 -10.14614,-1.2518c-10.93675,0 -18.44753,9.15788 -18.44753,21.28054c0,12.18854 7.90608,21.54407 19.10637,21.54407c9.75083,0 13.90153,-6.12721 15.41686,-11.92501z" data-paper-data="{&quot;glyphName&quot;:&quot;C&quot;,&quot;glyphIndex&quot;:7,&quot;word&quot;:2,&quot;fontStyleEffect&quot;:true,&quot;line&quot;:2}" fill="#059669" id="element-id-8614"></path><path d="M466.20789,246.85509v-1.63953c-5.04976,0.19674 -10.49301,0.19674 -15.60836,0v1.63953c3.47581,0.39349 4.72186,0.78698 4.72186,2.42651v15.34603h-17.11673v-15.34603c0,-1.63953 1.24605,-2.03302 4.72186,-2.42651v-1.63953c-5.11534,0.19674 -10.49301,0.19674 -15.60836,0v1.63953c3.47581,0.39349 4.72186,0.78698 4.72186,2.42651v32.52834c0,1.63953 -1.24605,2.0986 -4.72186,2.42651v1.70511c5.11534,-0.19674 10.49301,-0.19674 15.60836,0v-1.70511c-3.47581,-0.32791 -4.72186,-0.78698 -4.72186,-2.42651v-15.28045h17.11673v15.28045c0,1.63953 -1.24605,2.0986 -4.72186,2.42651v1.70511c5.11534,-0.19674 10.5586,-0.19674 15.60836,0v-1.70511c-3.41023,-0.32791 -4.65627,-0.78698 -4.65627,-2.42651v-32.52834c0,-1.63953 1.24605,-2.03302 4.65627,-2.42651z" data-paper-data="{&quot;glyphName&quot;:&quot;H&quot;,&quot;glyphIndex&quot;:8,&quot;lastGlyphOfWord&quot;:true,&quot;word&quot;:2,&quot;fontStyleEffect&quot;:true,&quot;line&quot;:2,&quot;lastGlyphOfSecondLine&quot;:true}" fill="#059669" id="element-id-58171"></path></g><g data-paper-data="{&quot;fillRule&quot;:&quot;evenodd&quot;,&quot;fillRuleOriginal&quot;:&quot;evenodd&quot;,&quot;isIcon&quot;:true,&quot;iconStyle&quot;:&quot;standalone&quot;,&quot;selectedEffects&quot;:{&quot;container&quot;:&quot;&quot;,&quot;transformation&quot;:&quot;&quot;,&quot;pattern&quot;:&quot;&quot;},&quot;bounds&quot;:{&quot;x&quot;:83.79210960815155,&quot;y&quot;:181.08779203461472,&quot;width&quot;:116.9937356128751,&quot;height&quot;:107.82441593077056},&quot;iconType&quot;:&quot;icon&quot;,&quot;isDetailed&quot;:false,&quot;source&quot;:&quot;noun&quot;,&quot;rawIconId&quot;:&quot;1563889&quot;,&quot;suitableAsStandaloneIcon&quot;:true}" fill-rule="evenodd" id="element-id-5689"><path d="M90.71155,181.08779l-5.13652,29.16353l109.11067,19.2301h-110.89359v48.86059c0,5.90063 4.79691,10.57019 10.65509,10.57019h90.41969c5.90063,0 10.57019,-4.66956 10.57019,-10.57019v-48.72815l0.21225,0.03736l5.13652,-29.16353zM95.46601,199.51133l7.13169,-8.36276l13.03232,2.33478l-10.44284,12.22576l-10.48529,-1.86782zM131.29427,210.33623l-13.07477,-2.29233l10.44284,-12.26821l13.07477,2.29233zM154.81189,200.36034l13.07477,2.29233l-6.39602,7.51392l-4.05742,4.7526l-13.06416,-2.29063zM190.97976,210.84563l-7.42884,8.70236l-13.07477,-2.29233l10.44284,-12.26821l10.73999,1.91027zM102.30055,237.12253l5.98553,10.18814h-13.28703l-3.14134,-5.39122v-4.79691zM134.81768,247.31066h-13.24457l-5.98553,-10.18814h13.24457zM142.07672,237.12253h13.24457l5.98553,10.18814h-13.24457zM174.59385,247.31066l-5.98553,-10.18814h13.24457l5.90063,10.06078v0.12735z" data-paper-data="{&quot;isPathIcon&quot;:true}" fill="#059669" id="element-id-63032"></path></g><path d="M220.32172,288.91221v-107.82442h1.96893v107.82442z" data-paper-data="{&quot;isShapeTextSeparator&quot;:true}" fill-rule="nonzero" fill="#059669" id="element-id-67475"></path></g></g><rect data-element-id="element-id-90412" stroke-width="2" fill="transparent" class="invisible-element-box grouping-element" x="250" y="183" width="217" height="104" data-element-name="isPrimaryText"></rect><rect data-element-id="element-id-5689" stroke-width="2" fill="transparent" class="invisible-element-box grouping-element" x="84" y="181" width="117" height="108" data-element-name="isIcon"></rect><rect data-element-id="element-id-63032" stroke-width="2" fill="transparent" class="invisible-element-box individual-element" x="84" y="181" width="117" height="108"></rect><rect data-element-id="element-id-4788" stroke-width="2" fill="transparent" class="invisible-element-box individual-element" x="250" y="183" width="64" height="41"></rect><rect data-element-id="element-id-80156" stroke-width="2" fill="transparent" class="invisible-element-box individual-element" x="250" y="245" width="60" height="41"></rect><rect data-element-id="element-id-62170" stroke-width="2" fill="transparent" class="invisible-element-box individual-element" x="305" y="183" width="45" height="41"></rect><rect data-element-id="element-id-98694" stroke-width="2" fill="transparent" class="invisible-element-box individual-element" x="351" y="183" width="43" height="41"></rect><rect data-element-id="element-id-50270" stroke-width="2" fill="transparent" class="invisible-element-box individual-element" x="304" y="245" width="41" height="41"></rect><rect data-element-id="element-id-58171" stroke-width="2" fill="transparent" class="invisible-element-box individual-element" x="427" y="245" width="39" height="41"></rect><rect data-element-id="element-id-56931" stroke-width="2" fill="transparent" class="invisible-element-box individual-element" x="396" y="183" width="37" height="41"></rect><rect data-element-id="element-id-8614" stroke-width="2" fill="transparent" class="invisible-element-box individual-element" x="385" y="244" width="35" height="43"></rect><rect data-element-id="element-id-22227" stroke-width="2" fill="transparent" class="invisible-element-box individual-element" x="347" y="245" width="32" height="41"></rect><rect data-element-id="element-id-67475" stroke-width="2" fill="transparent" class="invisible-element-box individual-element" x="220" y="181" width="2" height="108"></rect></svg>